<mxfile host="www.draw.io" modified="2023-09-18T08:12:22.809Z" agent="Mozilla/5.0 (Windows NT 10.0; Win64; x64) AppleWebKit/537.36 (KHTML, like Gecko) Chrome/115.0.0.0 Safari/537.36 Edg/115.0.1901.188" etag="Ii2Pi5T1M8HAFslRIJv4" version="21.7.5" type="device">
  <diagram id="R2lEEEUBdFMjLlhIrx00" name="Page-1">
    <mxGraphModel dx="2450" dy="646" grid="1" gridSize="10" guides="1" tooltips="1" connect="1" arrows="1" fold="1" page="1" pageScale="1" pageWidth="850" pageHeight="1100" math="0" shadow="0" extFonts="Permanent Marker^https://fonts.googleapis.com/css?family=Permanent+Marker">
      <root>
        <mxCell id="0" />
        <mxCell id="1" parent="0" />
        <mxCell id="F_xju4eKiRVyOeqaCH-x-1" value="login Management" style="rounded=0;whiteSpace=wrap;html=1;" vertex="1" parent="1">
          <mxGeometry x="360" y="150" width="120" height="60" as="geometry" />
        </mxCell>
        <mxCell id="F_xju4eKiRVyOeqaCH-x-2" value="login _id&amp;nbsp;" style="ellipse;whiteSpace=wrap;html=1;" vertex="1" parent="1">
          <mxGeometry x="160" y="50" width="90" height="60" as="geometry" />
        </mxCell>
        <mxCell id="F_xju4eKiRVyOeqaCH-x-3" value="login role id&amp;nbsp;" style="ellipse;whiteSpace=wrap;html=1;" vertex="1" parent="1">
          <mxGeometry x="260" y="10" width="90" height="60" as="geometry" />
        </mxCell>
        <mxCell id="F_xju4eKiRVyOeqaCH-x-4" value="login _username&amp;nbsp;" style="ellipse;whiteSpace=wrap;html=1;" vertex="1" parent="1">
          <mxGeometry x="410" y="10" width="90" height="60" as="geometry" />
        </mxCell>
        <mxCell id="F_xju4eKiRVyOeqaCH-x-5" value="login Password&amp;nbsp;" style="ellipse;whiteSpace=wrap;html=1;" vertex="1" parent="1">
          <mxGeometry x="540" y="20" width="90" height="60" as="geometry" />
        </mxCell>
        <mxCell id="F_xju4eKiRVyOeqaCH-x-6" value="Has" style="rhombus;whiteSpace=wrap;html=1;" vertex="1" parent="1">
          <mxGeometry x="380" y="300" width="80" height="80" as="geometry" />
        </mxCell>
        <mxCell id="F_xju4eKiRVyOeqaCH-x-7" value="Roles" style="rounded=0;whiteSpace=wrap;html=1;" vertex="1" parent="1">
          <mxGeometry x="610" y="315" width="100" height="50" as="geometry" />
        </mxCell>
        <mxCell id="F_xju4eKiRVyOeqaCH-x-8" value="Roles_id" style="ellipse;whiteSpace=wrap;html=1;" vertex="1" parent="1">
          <mxGeometry x="860" y="190" width="90" height="60" as="geometry" />
        </mxCell>
        <mxCell id="F_xju4eKiRVyOeqaCH-x-9" value="Role Name" style="ellipse;whiteSpace=wrap;html=1;" vertex="1" parent="1">
          <mxGeometry x="890" y="240" width="90" height="60" as="geometry" />
        </mxCell>
        <mxCell id="F_xju4eKiRVyOeqaCH-x-10" value="User&amp;nbsp;" style="rounded=0;whiteSpace=wrap;html=1;" vertex="1" parent="1">
          <mxGeometry x="120" y="310" width="110" height="50" as="geometry" />
        </mxCell>
        <mxCell id="F_xju4eKiRVyOeqaCH-x-11" value="User _id" style="ellipse;whiteSpace=wrap;html=1;" vertex="1" parent="1">
          <mxGeometry x="10" y="160" width="90" height="60" as="geometry" />
        </mxCell>
        <mxCell id="F_xju4eKiRVyOeqaCH-x-12" value="User address" style="ellipse;whiteSpace=wrap;html=1;" vertex="1" parent="1">
          <mxGeometry x="-120" y="270" width="90" height="60" as="geometry" />
        </mxCell>
        <mxCell id="F_xju4eKiRVyOeqaCH-x-13" value="User mobile&amp;nbsp;&lt;br&gt;Number" style="ellipse;whiteSpace=wrap;html=1;" vertex="1" parent="1">
          <mxGeometry x="-120" y="170" width="90" height="60" as="geometry" />
        </mxCell>
        <mxCell id="F_xju4eKiRVyOeqaCH-x-14" value="User name" style="ellipse;whiteSpace=wrap;html=1;" vertex="1" parent="1">
          <mxGeometry x="-135" y="365" width="85" height="55" as="geometry" />
        </mxCell>
        <mxCell id="F_xju4eKiRVyOeqaCH-x-16" value="Manage" style="rhombus;whiteSpace=wrap;html=1;" vertex="1" parent="1">
          <mxGeometry x="295" y="640" width="260" height="120" as="geometry" />
        </mxCell>
        <mxCell id="F_xju4eKiRVyOeqaCH-x-17" value="Permission" style="rounded=0;whiteSpace=wrap;html=1;" vertex="1" parent="1">
          <mxGeometry x="730" y="440" width="120" height="60" as="geometry" />
        </mxCell>
        <mxCell id="F_xju4eKiRVyOeqaCH-x-18" value="module&amp;nbsp;" style="ellipse;whiteSpace=wrap;html=1;" vertex="1" parent="1">
          <mxGeometry x="995" y="380" width="90" height="60" as="geometry" />
        </mxCell>
        <mxCell id="F_xju4eKiRVyOeqaCH-x-19" value="name&amp;nbsp;" style="ellipse;whiteSpace=wrap;html=1;" vertex="1" parent="1">
          <mxGeometry x="1040" y="460" width="90" height="60" as="geometry" />
        </mxCell>
        <mxCell id="F_xju4eKiRVyOeqaCH-x-20" value="role id" style="ellipse;whiteSpace=wrap;html=1;" vertex="1" parent="1">
          <mxGeometry x="1050" y="540" width="90" height="60" as="geometry" />
        </mxCell>
        <mxCell id="F_xju4eKiRVyOeqaCH-x-21" value="address" style="ellipse;whiteSpace=wrap;html=1;" vertex="1" parent="1">
          <mxGeometry x="1030" y="610" width="90" height="60" as="geometry" />
        </mxCell>
        <mxCell id="F_xju4eKiRVyOeqaCH-x-22" value="Mobile&amp;nbsp; Specification" style="rounded=0;whiteSpace=wrap;html=1;" vertex="1" parent="1">
          <mxGeometry x="730" y="860" width="120" height="60" as="geometry" />
        </mxCell>
        <mxCell id="F_xju4eKiRVyOeqaCH-x-23" value="Mobile Model" style="ellipse;whiteSpace=wrap;html=1;" vertex="1" parent="1">
          <mxGeometry x="990" y="760" width="95" height="50" as="geometry" />
        </mxCell>
        <mxCell id="F_xju4eKiRVyOeqaCH-x-24" value="Version Of Software" style="ellipse;whiteSpace=wrap;html=1;" vertex="1" parent="1">
          <mxGeometry x="1020" y="850" width="90" height="60" as="geometry" />
        </mxCell>
        <mxCell id="F_xju4eKiRVyOeqaCH-x-25" value="Mobile Types" style="ellipse;whiteSpace=wrap;html=1;" vertex="1" parent="1">
          <mxGeometry x="1030" y="950" width="90" height="60" as="geometry" />
        </mxCell>
        <mxCell id="F_xju4eKiRVyOeqaCH-x-26" value="Mobile Name" style="ellipse;whiteSpace=wrap;html=1;" vertex="1" parent="1">
          <mxGeometry x="1010" y="1040" width="90" height="60" as="geometry" />
        </mxCell>
        <mxCell id="F_xju4eKiRVyOeqaCH-x-27" value="Payment Method" style="rounded=0;whiteSpace=wrap;html=1;" vertex="1" parent="1">
          <mxGeometry x="360" y="920" width="120" height="60" as="geometry" />
        </mxCell>
        <mxCell id="F_xju4eKiRVyOeqaCH-x-28" value="Upi payment" style="ellipse;whiteSpace=wrap;html=1;" vertex="1" parent="1">
          <mxGeometry x="530" y="755" width="90" height="60" as="geometry" />
        </mxCell>
        <mxCell id="F_xju4eKiRVyOeqaCH-x-29" value="Card Payment" style="ellipse;whiteSpace=wrap;html=1;" vertex="1" parent="1">
          <mxGeometry x="540" y="850" width="90" height="60" as="geometry" />
        </mxCell>
        <mxCell id="F_xju4eKiRVyOeqaCH-x-30" value="Cash on Hand&amp;nbsp;&lt;br&gt;payment" style="ellipse;whiteSpace=wrap;html=1;" vertex="1" parent="1">
          <mxGeometry x="540" y="980" width="90" height="60" as="geometry" />
        </mxCell>
        <mxCell id="F_xju4eKiRVyOeqaCH-x-31" value="Emi System" style="ellipse;whiteSpace=wrap;html=1;" vertex="1" parent="1">
          <mxGeometry x="450" y="1060" width="90" height="60" as="geometry" />
        </mxCell>
        <mxCell id="F_xju4eKiRVyOeqaCH-x-33" value="Billing Method with&amp;nbsp;&lt;br&gt;GST&amp;nbsp;" style="rounded=0;whiteSpace=wrap;html=1;" vertex="1" parent="1">
          <mxGeometry x="80" y="1120" width="120" height="60" as="geometry" />
        </mxCell>
        <mxCell id="F_xju4eKiRVyOeqaCH-x-34" value="User Name&amp;nbsp;" style="ellipse;whiteSpace=wrap;html=1;" vertex="1" parent="1">
          <mxGeometry x="-40" y="1270" width="90" height="60" as="geometry" />
        </mxCell>
        <mxCell id="F_xju4eKiRVyOeqaCH-x-35" value="User Number" style="ellipse;whiteSpace=wrap;html=1;" vertex="1" parent="1">
          <mxGeometry x="70" y="1270" width="90" height="60" as="geometry" />
        </mxCell>
        <mxCell id="F_xju4eKiRVyOeqaCH-x-36" value="Date of Purchase" style="ellipse;whiteSpace=wrap;html=1;" vertex="1" parent="1">
          <mxGeometry x="240" y="1260" width="90" height="60" as="geometry" />
        </mxCell>
        <mxCell id="F_xju4eKiRVyOeqaCH-x-37" value="Model IMEI&lt;br&gt;Number" style="ellipse;whiteSpace=wrap;html=1;" vertex="1" parent="1">
          <mxGeometry x="300" y="1160" width="90" height="60" as="geometry" />
        </mxCell>
        <mxCell id="F_xju4eKiRVyOeqaCH-x-38" value="Mobile Name" style="ellipse;whiteSpace=wrap;html=1;" vertex="1" parent="1">
          <mxGeometry x="-210" y="1240" width="90" height="60" as="geometry" />
        </mxCell>
        <mxCell id="F_xju4eKiRVyOeqaCH-x-39" value="Customer&amp;nbsp;" style="rounded=0;whiteSpace=wrap;html=1;" vertex="1" parent="1">
          <mxGeometry x="-310" y="810" width="120" height="60" as="geometry" />
        </mxCell>
        <mxCell id="F_xju4eKiRVyOeqaCH-x-40" value="Customer Name&amp;nbsp;" style="ellipse;whiteSpace=wrap;html=1;" vertex="1" parent="1">
          <mxGeometry x="-610" y="700" width="120" height="80" as="geometry" />
        </mxCell>
        <mxCell id="F_xju4eKiRVyOeqaCH-x-41" value="Customer ID" style="ellipse;whiteSpace=wrap;html=1;" vertex="1" parent="1">
          <mxGeometry x="-630" y="830" width="120" height="80" as="geometry" />
        </mxCell>
        <mxCell id="F_xju4eKiRVyOeqaCH-x-42" value="Customer Pass" style="ellipse;whiteSpace=wrap;html=1;" vertex="1" parent="1">
          <mxGeometry x="-640" y="950" width="90" height="60" as="geometry" />
        </mxCell>
        <mxCell id="F_xju4eKiRVyOeqaCH-x-43" value="Customer Add" style="ellipse;whiteSpace=wrap;html=1;" vertex="1" parent="1">
          <mxGeometry x="-637.5" y="1080" width="85" height="70" as="geometry" />
        </mxCell>
        <mxCell id="F_xju4eKiRVyOeqaCH-x-44" value="Customer Required&amp;nbsp;&lt;br&gt;Mobile&amp;nbsp;" style="ellipse;whiteSpace=wrap;html=1;" vertex="1" parent="1">
          <mxGeometry x="-530" y="1180" width="90" height="60" as="geometry" />
        </mxCell>
        <mxCell id="F_xju4eKiRVyOeqaCH-x-45" value="Customer Email" style="ellipse;whiteSpace=wrap;html=1;" vertex="1" parent="1">
          <mxGeometry x="-410" y="670" width="90" height="60" as="geometry" />
        </mxCell>
        <mxCell id="F_xju4eKiRVyOeqaCH-x-46" value="" style="endArrow=none;html=1;rounded=0;" edge="1" parent="1" source="F_xju4eKiRVyOeqaCH-x-1" target="F_xju4eKiRVyOeqaCH-x-3">
          <mxGeometry width="50" height="50" relative="1" as="geometry">
            <mxPoint x="340" y="460" as="sourcePoint" />
            <mxPoint x="390" y="410" as="targetPoint" />
          </mxGeometry>
        </mxCell>
        <mxCell id="F_xju4eKiRVyOeqaCH-x-47" value="" style="endArrow=none;html=1;rounded=0;exitX=0;exitY=0.75;exitDx=0;exitDy=0;" edge="1" parent="1" source="F_xju4eKiRVyOeqaCH-x-1" target="F_xju4eKiRVyOeqaCH-x-2">
          <mxGeometry width="50" height="50" relative="1" as="geometry">
            <mxPoint x="340" y="460" as="sourcePoint" />
            <mxPoint x="390" y="410" as="targetPoint" />
          </mxGeometry>
        </mxCell>
        <mxCell id="F_xju4eKiRVyOeqaCH-x-48" value="" style="endArrow=none;html=1;rounded=0;" edge="1" parent="1" target="F_xju4eKiRVyOeqaCH-x-4">
          <mxGeometry width="50" height="50" relative="1" as="geometry">
            <mxPoint x="430" y="160" as="sourcePoint" />
            <mxPoint x="390" y="410" as="targetPoint" />
          </mxGeometry>
        </mxCell>
        <mxCell id="F_xju4eKiRVyOeqaCH-x-49" value="" style="endArrow=none;html=1;rounded=0;entryX=0;entryY=1;entryDx=0;entryDy=0;exitX=0.75;exitY=0;exitDx=0;exitDy=0;" edge="1" parent="1" source="F_xju4eKiRVyOeqaCH-x-1" target="F_xju4eKiRVyOeqaCH-x-5">
          <mxGeometry width="50" height="50" relative="1" as="geometry">
            <mxPoint x="340" y="460" as="sourcePoint" />
            <mxPoint x="390" y="410" as="targetPoint" />
          </mxGeometry>
        </mxCell>
        <mxCell id="F_xju4eKiRVyOeqaCH-x-50" value="" style="endArrow=none;html=1;rounded=0;entryX=0;entryY=0.5;entryDx=0;entryDy=0;exitX=1;exitY=0.5;exitDx=0;exitDy=0;" edge="1" parent="1" source="F_xju4eKiRVyOeqaCH-x-6" target="F_xju4eKiRVyOeqaCH-x-7">
          <mxGeometry width="50" height="50" relative="1" as="geometry">
            <mxPoint x="340" y="460" as="sourcePoint" />
            <mxPoint x="390" y="410" as="targetPoint" />
          </mxGeometry>
        </mxCell>
        <mxCell id="F_xju4eKiRVyOeqaCH-x-51" value="" style="endArrow=none;html=1;rounded=0;exitX=0;exitY=0.5;exitDx=0;exitDy=0;" edge="1" parent="1" source="F_xju4eKiRVyOeqaCH-x-6">
          <mxGeometry width="50" height="50" relative="1" as="geometry">
            <mxPoint x="340" y="460" as="sourcePoint" />
            <mxPoint x="230" y="340" as="targetPoint" />
          </mxGeometry>
        </mxCell>
        <mxCell id="F_xju4eKiRVyOeqaCH-x-52" value="" style="endArrow=none;html=1;rounded=0;exitX=0.5;exitY=0;exitDx=0;exitDy=0;" edge="1" parent="1" source="F_xju4eKiRVyOeqaCH-x-6" target="F_xju4eKiRVyOeqaCH-x-1">
          <mxGeometry width="50" height="50" relative="1" as="geometry">
            <mxPoint x="340" y="460" as="sourcePoint" />
            <mxPoint x="390" y="410" as="targetPoint" />
          </mxGeometry>
        </mxCell>
        <mxCell id="F_xju4eKiRVyOeqaCH-x-53" value="" style="endArrow=none;html=1;rounded=0;exitX=0;exitY=0.25;exitDx=0;exitDy=0;" edge="1" parent="1" source="F_xju4eKiRVyOeqaCH-x-10" target="F_xju4eKiRVyOeqaCH-x-11">
          <mxGeometry width="50" height="50" relative="1" as="geometry">
            <mxPoint x="340" y="460" as="sourcePoint" />
            <mxPoint x="390" y="410" as="targetPoint" />
          </mxGeometry>
        </mxCell>
        <mxCell id="F_xju4eKiRVyOeqaCH-x-54" value="" style="endArrow=none;html=1;rounded=0;exitX=1;exitY=1;exitDx=0;exitDy=0;" edge="1" parent="1" source="F_xju4eKiRVyOeqaCH-x-13">
          <mxGeometry width="50" height="50" relative="1" as="geometry">
            <mxPoint x="340" y="460" as="sourcePoint" />
            <mxPoint x="120" y="320" as="targetPoint" />
          </mxGeometry>
        </mxCell>
        <mxCell id="F_xju4eKiRVyOeqaCH-x-55" value="" style="endArrow=none;html=1;rounded=0;entryX=0;entryY=0.5;entryDx=0;entryDy=0;" edge="1" parent="1" source="F_xju4eKiRVyOeqaCH-x-12" target="F_xju4eKiRVyOeqaCH-x-10">
          <mxGeometry width="50" height="50" relative="1" as="geometry">
            <mxPoint x="340" y="460" as="sourcePoint" />
            <mxPoint x="390" y="410" as="targetPoint" />
          </mxGeometry>
        </mxCell>
        <mxCell id="F_xju4eKiRVyOeqaCH-x-56" value="" style="endArrow=none;html=1;rounded=0;" edge="1" parent="1" source="F_xju4eKiRVyOeqaCH-x-14">
          <mxGeometry width="50" height="50" relative="1" as="geometry">
            <mxPoint x="340" y="460" as="sourcePoint" />
            <mxPoint x="110" y="340" as="targetPoint" />
          </mxGeometry>
        </mxCell>
        <mxCell id="F_xju4eKiRVyOeqaCH-x-57" value="" style="endArrow=none;html=1;rounded=0;entryX=0;entryY=0.5;entryDx=0;entryDy=0;" edge="1" parent="1" target="F_xju4eKiRVyOeqaCH-x-8">
          <mxGeometry width="50" height="50" relative="1" as="geometry">
            <mxPoint x="710" y="350" as="sourcePoint" />
            <mxPoint x="390" y="410" as="targetPoint" />
          </mxGeometry>
        </mxCell>
        <mxCell id="F_xju4eKiRVyOeqaCH-x-58" value="" style="endArrow=none;html=1;rounded=0;entryX=0;entryY=1;entryDx=0;entryDy=0;exitX=1;exitY=0.75;exitDx=0;exitDy=0;" edge="1" parent="1" source="F_xju4eKiRVyOeqaCH-x-7" target="F_xju4eKiRVyOeqaCH-x-9">
          <mxGeometry width="50" height="50" relative="1" as="geometry">
            <mxPoint x="340" y="460" as="sourcePoint" />
            <mxPoint x="390" y="410" as="targetPoint" />
          </mxGeometry>
        </mxCell>
        <mxCell id="F_xju4eKiRVyOeqaCH-x-59" value="" style="endArrow=none;html=1;rounded=0;entryX=0;entryY=0.5;entryDx=0;entryDy=0;" edge="1" parent="1" source="F_xju4eKiRVyOeqaCH-x-17" target="F_xju4eKiRVyOeqaCH-x-18">
          <mxGeometry width="50" height="50" relative="1" as="geometry">
            <mxPoint x="340" y="460" as="sourcePoint" />
            <mxPoint x="390" y="410" as="targetPoint" />
          </mxGeometry>
        </mxCell>
        <mxCell id="F_xju4eKiRVyOeqaCH-x-60" value="" style="endArrow=none;html=1;rounded=0;entryX=0;entryY=0;entryDx=0;entryDy=0;exitX=1;exitY=0.25;exitDx=0;exitDy=0;" edge="1" parent="1" source="F_xju4eKiRVyOeqaCH-x-17" target="F_xju4eKiRVyOeqaCH-x-19">
          <mxGeometry width="50" height="50" relative="1" as="geometry">
            <mxPoint x="340" y="460" as="sourcePoint" />
            <mxPoint x="390" y="410" as="targetPoint" />
          </mxGeometry>
        </mxCell>
        <mxCell id="F_xju4eKiRVyOeqaCH-x-61" value="" style="endArrow=none;html=1;rounded=0;exitX=1;exitY=0.25;exitDx=0;exitDy=0;" edge="1" parent="1" source="F_xju4eKiRVyOeqaCH-x-17" target="F_xju4eKiRVyOeqaCH-x-20">
          <mxGeometry width="50" height="50" relative="1" as="geometry">
            <mxPoint x="340" y="460" as="sourcePoint" />
            <mxPoint x="390" y="410" as="targetPoint" />
          </mxGeometry>
        </mxCell>
        <mxCell id="F_xju4eKiRVyOeqaCH-x-62" value="" style="endArrow=none;html=1;rounded=0;entryX=0.5;entryY=0;entryDx=0;entryDy=0;exitX=1;exitY=0.25;exitDx=0;exitDy=0;" edge="1" parent="1" source="F_xju4eKiRVyOeqaCH-x-17" target="F_xju4eKiRVyOeqaCH-x-21">
          <mxGeometry width="50" height="50" relative="1" as="geometry">
            <mxPoint x="340" y="460" as="sourcePoint" />
            <mxPoint x="390" y="410" as="targetPoint" />
          </mxGeometry>
        </mxCell>
        <mxCell id="F_xju4eKiRVyOeqaCH-x-63" value="" style="endArrow=none;html=1;rounded=0;" edge="1" parent="1" source="F_xju4eKiRVyOeqaCH-x-22" target="F_xju4eKiRVyOeqaCH-x-23">
          <mxGeometry width="50" height="50" relative="1" as="geometry">
            <mxPoint x="340" y="750" as="sourcePoint" />
            <mxPoint x="390" y="700" as="targetPoint" />
          </mxGeometry>
        </mxCell>
        <mxCell id="F_xju4eKiRVyOeqaCH-x-64" value="" style="endArrow=none;html=1;rounded=0;exitX=1;exitY=0.25;exitDx=0;exitDy=0;" edge="1" parent="1" source="F_xju4eKiRVyOeqaCH-x-22" target="F_xju4eKiRVyOeqaCH-x-24">
          <mxGeometry width="50" height="50" relative="1" as="geometry">
            <mxPoint x="340" y="750" as="sourcePoint" />
            <mxPoint x="390" y="700" as="targetPoint" />
          </mxGeometry>
        </mxCell>
        <mxCell id="F_xju4eKiRVyOeqaCH-x-66" value="" style="endArrow=none;html=1;rounded=0;exitX=1;exitY=0.5;exitDx=0;exitDy=0;" edge="1" parent="1" source="F_xju4eKiRVyOeqaCH-x-22" target="F_xju4eKiRVyOeqaCH-x-25">
          <mxGeometry width="50" height="50" relative="1" as="geometry">
            <mxPoint x="340" y="750" as="sourcePoint" />
            <mxPoint x="390" y="700" as="targetPoint" />
          </mxGeometry>
        </mxCell>
        <mxCell id="F_xju4eKiRVyOeqaCH-x-68" value="" style="endArrow=none;html=1;rounded=0;entryX=0;entryY=0;entryDx=0;entryDy=0;exitX=1;exitY=0.5;exitDx=0;exitDy=0;" edge="1" parent="1" source="F_xju4eKiRVyOeqaCH-x-22" target="F_xju4eKiRVyOeqaCH-x-26">
          <mxGeometry width="50" height="50" relative="1" as="geometry">
            <mxPoint x="340" y="750" as="sourcePoint" />
            <mxPoint x="390" y="700" as="targetPoint" />
          </mxGeometry>
        </mxCell>
        <mxCell id="F_xju4eKiRVyOeqaCH-x-69" value="" style="endArrow=none;html=1;rounded=0;exitX=0.75;exitY=0;exitDx=0;exitDy=0;" edge="1" parent="1" source="F_xju4eKiRVyOeqaCH-x-27" target="F_xju4eKiRVyOeqaCH-x-28">
          <mxGeometry width="50" height="50" relative="1" as="geometry">
            <mxPoint x="340" y="750" as="sourcePoint" />
            <mxPoint x="390" y="700" as="targetPoint" />
          </mxGeometry>
        </mxCell>
        <mxCell id="F_xju4eKiRVyOeqaCH-x-70" value="" style="endArrow=none;html=1;rounded=0;entryX=0;entryY=0;entryDx=0;entryDy=0;exitX=0.872;exitY=0.006;exitDx=0;exitDy=0;exitPerimeter=0;" edge="1" parent="1" source="F_xju4eKiRVyOeqaCH-x-27" target="F_xju4eKiRVyOeqaCH-x-29">
          <mxGeometry width="50" height="50" relative="1" as="geometry">
            <mxPoint x="340" y="750" as="sourcePoint" />
            <mxPoint x="390" y="700" as="targetPoint" />
          </mxGeometry>
        </mxCell>
        <mxCell id="F_xju4eKiRVyOeqaCH-x-72" value="" style="endArrow=none;html=1;rounded=0;exitX=0.5;exitY=1;exitDx=0;exitDy=0;entryX=0.5;entryY=0;entryDx=0;entryDy=0;" edge="1" parent="1" source="F_xju4eKiRVyOeqaCH-x-27" target="F_xju4eKiRVyOeqaCH-x-31">
          <mxGeometry width="50" height="50" relative="1" as="geometry">
            <mxPoint x="340" y="750" as="sourcePoint" />
            <mxPoint x="430" y="1040" as="targetPoint" />
          </mxGeometry>
        </mxCell>
        <mxCell id="F_xju4eKiRVyOeqaCH-x-73" value="" style="endArrow=none;html=1;rounded=0;entryX=0;entryY=0;entryDx=0;entryDy=0;exitX=1;exitY=0.5;exitDx=0;exitDy=0;" edge="1" parent="1" source="F_xju4eKiRVyOeqaCH-x-27" target="F_xju4eKiRVyOeqaCH-x-30">
          <mxGeometry width="50" height="50" relative="1" as="geometry">
            <mxPoint x="340" y="750" as="sourcePoint" />
            <mxPoint x="390" y="700" as="targetPoint" />
          </mxGeometry>
        </mxCell>
        <mxCell id="F_xju4eKiRVyOeqaCH-x-74" value="" style="endArrow=none;html=1;rounded=0;exitX=0.5;exitY=1;exitDx=0;exitDy=0;entryX=0.015;entryY=0.825;entryDx=0;entryDy=0;entryPerimeter=0;" edge="1" parent="1" source="F_xju4eKiRVyOeqaCH-x-33" target="F_xju4eKiRVyOeqaCH-x-37">
          <mxGeometry width="50" height="50" relative="1" as="geometry">
            <mxPoint x="340" y="1050" as="sourcePoint" />
            <mxPoint x="390" y="1000" as="targetPoint" />
          </mxGeometry>
        </mxCell>
        <mxCell id="F_xju4eKiRVyOeqaCH-x-75" value="" style="endArrow=none;html=1;rounded=0;entryX=0.5;entryY=1;entryDx=0;entryDy=0;" edge="1" parent="1" source="F_xju4eKiRVyOeqaCH-x-35" target="F_xju4eKiRVyOeqaCH-x-33">
          <mxGeometry width="50" height="50" relative="1" as="geometry">
            <mxPoint x="340" y="1050" as="sourcePoint" />
            <mxPoint x="390" y="1000" as="targetPoint" />
          </mxGeometry>
        </mxCell>
        <mxCell id="F_xju4eKiRVyOeqaCH-x-76" value="" style="endArrow=none;html=1;rounded=0;entryX=0.636;entryY=1.075;entryDx=0;entryDy=0;entryPerimeter=0;" edge="1" parent="1" source="F_xju4eKiRVyOeqaCH-x-36" target="F_xju4eKiRVyOeqaCH-x-33">
          <mxGeometry width="50" height="50" relative="1" as="geometry">
            <mxPoint x="340" y="1050" as="sourcePoint" />
            <mxPoint x="390" y="1000" as="targetPoint" />
          </mxGeometry>
        </mxCell>
        <mxCell id="F_xju4eKiRVyOeqaCH-x-77" value="" style="endArrow=none;html=1;rounded=0;exitX=0.5;exitY=0;exitDx=0;exitDy=0;entryX=0.5;entryY=1;entryDx=0;entryDy=0;" edge="1" parent="1" source="F_xju4eKiRVyOeqaCH-x-34" target="F_xju4eKiRVyOeqaCH-x-33">
          <mxGeometry width="50" height="50" relative="1" as="geometry">
            <mxPoint x="340" y="1050" as="sourcePoint" />
            <mxPoint x="390" y="1000" as="targetPoint" />
          </mxGeometry>
        </mxCell>
        <mxCell id="F_xju4eKiRVyOeqaCH-x-78" value="" style="endArrow=none;html=1;rounded=0;" edge="1" parent="1" source="F_xju4eKiRVyOeqaCH-x-38">
          <mxGeometry width="50" height="50" relative="1" as="geometry">
            <mxPoint x="340" y="1050" as="sourcePoint" />
            <mxPoint x="130" y="1190" as="targetPoint" />
          </mxGeometry>
        </mxCell>
        <mxCell id="F_xju4eKiRVyOeqaCH-x-79" value="" style="endArrow=none;html=1;rounded=0;exitX=0;exitY=0.25;exitDx=0;exitDy=0;" edge="1" parent="1">
          <mxGeometry width="50" height="50" relative="1" as="geometry">
            <mxPoint x="-311.9999999999998" y="825" as="sourcePoint" />
            <mxPoint x="-354.3336894421859" y="728.7870694495775" as="targetPoint" />
          </mxGeometry>
        </mxCell>
        <mxCell id="F_xju4eKiRVyOeqaCH-x-80" value="" style="endArrow=none;html=1;rounded=0;exitX=1;exitY=1;exitDx=0;exitDy=0;" edge="1" parent="1" source="F_xju4eKiRVyOeqaCH-x-40" target="F_xju4eKiRVyOeqaCH-x-39">
          <mxGeometry width="50" height="50" relative="1" as="geometry">
            <mxPoint x="-980" y="950" as="sourcePoint" />
            <mxPoint x="-930" y="900" as="targetPoint" />
          </mxGeometry>
        </mxCell>
        <mxCell id="F_xju4eKiRVyOeqaCH-x-81" value="" style="endArrow=none;html=1;rounded=0;" edge="1" parent="1" source="F_xju4eKiRVyOeqaCH-x-41" target="F_xju4eKiRVyOeqaCH-x-39">
          <mxGeometry width="50" height="50" relative="1" as="geometry">
            <mxPoint x="-980" y="950" as="sourcePoint" />
            <mxPoint x="-930" y="900" as="targetPoint" />
          </mxGeometry>
        </mxCell>
        <mxCell id="F_xju4eKiRVyOeqaCH-x-82" value="" style="endArrow=none;html=1;rounded=0;entryX=0;entryY=0.75;entryDx=0;entryDy=0;exitX=1;exitY=1;exitDx=0;exitDy=0;" edge="1" parent="1" source="F_xju4eKiRVyOeqaCH-x-42" target="F_xju4eKiRVyOeqaCH-x-39">
          <mxGeometry width="50" height="50" relative="1" as="geometry">
            <mxPoint x="-980" y="950" as="sourcePoint" />
            <mxPoint x="-930" y="900" as="targetPoint" />
          </mxGeometry>
        </mxCell>
        <mxCell id="F_xju4eKiRVyOeqaCH-x-83" value="" style="endArrow=none;html=1;rounded=0;entryX=0;entryY=1;entryDx=0;entryDy=0;" edge="1" parent="1" source="F_xju4eKiRVyOeqaCH-x-43" target="F_xju4eKiRVyOeqaCH-x-39">
          <mxGeometry width="50" height="50" relative="1" as="geometry">
            <mxPoint x="-980" y="950" as="sourcePoint" />
            <mxPoint x="-930" y="900" as="targetPoint" />
          </mxGeometry>
        </mxCell>
        <mxCell id="F_xju4eKiRVyOeqaCH-x-84" value="" style="endArrow=none;html=1;rounded=0;entryX=0.5;entryY=1;entryDx=0;entryDy=0;" edge="1" parent="1" source="F_xju4eKiRVyOeqaCH-x-44" target="F_xju4eKiRVyOeqaCH-x-39">
          <mxGeometry width="50" height="50" relative="1" as="geometry">
            <mxPoint x="-980" y="950" as="sourcePoint" />
            <mxPoint x="-930" y="900" as="targetPoint" />
          </mxGeometry>
        </mxCell>
        <mxCell id="F_xju4eKiRVyOeqaCH-x-85" value="" style="endArrow=none;html=1;rounded=0;exitX=0.5;exitY=0;exitDx=0;exitDy=0;" edge="1" parent="1" source="F_xju4eKiRVyOeqaCH-x-16">
          <mxGeometry width="50" height="50" relative="1" as="geometry">
            <mxPoint x="610" y="780" as="sourcePoint" />
            <mxPoint x="425" y="490" as="targetPoint" />
          </mxGeometry>
        </mxCell>
        <mxCell id="F_xju4eKiRVyOeqaCH-x-86" value="" style="endArrow=none;html=1;rounded=0;entryX=0;entryY=0.5;entryDx=0;entryDy=0;" edge="1" parent="1" target="F_xju4eKiRVyOeqaCH-x-16">
          <mxGeometry width="50" height="50" relative="1" as="geometry">
            <mxPoint x="-40" y="700" as="sourcePoint" />
            <mxPoint x="660" y="730" as="targetPoint" />
          </mxGeometry>
        </mxCell>
        <mxCell id="F_xju4eKiRVyOeqaCH-x-87" value="" style="endArrow=none;html=1;rounded=0;" edge="1" parent="1">
          <mxGeometry width="50" height="50" relative="1" as="geometry">
            <mxPoint x="-260" y="700" as="sourcePoint" />
            <mxPoint x="-30" y="700" as="targetPoint" />
          </mxGeometry>
        </mxCell>
        <mxCell id="F_xju4eKiRVyOeqaCH-x-88" value="" style="endArrow=none;html=1;rounded=0;" edge="1" parent="1">
          <mxGeometry width="50" height="50" relative="1" as="geometry">
            <mxPoint x="-260" y="800" as="sourcePoint" />
            <mxPoint x="-260" y="700" as="targetPoint" />
          </mxGeometry>
        </mxCell>
        <mxCell id="F_xju4eKiRVyOeqaCH-x-89" value="" style="endArrow=none;html=1;rounded=0;entryX=1;entryY=0.5;entryDx=0;entryDy=0;" edge="1" parent="1" target="F_xju4eKiRVyOeqaCH-x-16">
          <mxGeometry width="50" height="50" relative="1" as="geometry">
            <mxPoint x="810" y="700" as="sourcePoint" />
            <mxPoint x="510" y="760" as="targetPoint" />
          </mxGeometry>
        </mxCell>
        <mxCell id="F_xju4eKiRVyOeqaCH-x-90" value="" style="endArrow=none;html=1;rounded=0;" edge="1" parent="1" source="F_xju4eKiRVyOeqaCH-x-22">
          <mxGeometry width="50" height="50" relative="1" as="geometry">
            <mxPoint x="460" y="810" as="sourcePoint" />
            <mxPoint x="790" y="700" as="targetPoint" />
          </mxGeometry>
        </mxCell>
        <mxCell id="F_xju4eKiRVyOeqaCH-x-91" value="" style="endArrow=none;html=1;rounded=0;" edge="1" parent="1">
          <mxGeometry width="50" height="50" relative="1" as="geometry">
            <mxPoint x="170" y="490" as="sourcePoint" />
            <mxPoint x="420" y="490" as="targetPoint" />
          </mxGeometry>
        </mxCell>
        <mxCell id="F_xju4eKiRVyOeqaCH-x-92" value="" style="endArrow=none;html=1;rounded=0;" edge="1" parent="1">
          <mxGeometry width="50" height="50" relative="1" as="geometry">
            <mxPoint x="170" y="490" as="sourcePoint" />
            <mxPoint x="170" y="350" as="targetPoint" />
          </mxGeometry>
        </mxCell>
        <mxCell id="F_xju4eKiRVyOeqaCH-x-93" value="" style="endArrow=none;html=1;rounded=0;entryX=0;entryY=0.5;entryDx=0;entryDy=0;" edge="1" parent="1" target="F_xju4eKiRVyOeqaCH-x-17">
          <mxGeometry width="50" height="50" relative="1" as="geometry">
            <mxPoint x="425" y="470" as="sourcePoint" />
            <mxPoint x="735" y="440" as="targetPoint" />
          </mxGeometry>
        </mxCell>
        <mxCell id="F_xju4eKiRVyOeqaCH-x-94" value="" style="endArrow=none;html=1;rounded=0;entryX=0.5;entryY=1;entryDx=0;entryDy=0;" edge="1" parent="1" target="F_xju4eKiRVyOeqaCH-x-6">
          <mxGeometry width="50" height="50" relative="1" as="geometry">
            <mxPoint x="420" y="470" as="sourcePoint" />
            <mxPoint x="510" y="520" as="targetPoint" />
          </mxGeometry>
        </mxCell>
        <mxCell id="F_xju4eKiRVyOeqaCH-x-95" value="" style="endArrow=none;html=1;rounded=0;exitX=0.5;exitY=0;exitDx=0;exitDy=0;" edge="1" parent="1" source="F_xju4eKiRVyOeqaCH-x-27" target="F_xju4eKiRVyOeqaCH-x-16">
          <mxGeometry width="50" height="50" relative="1" as="geometry">
            <mxPoint x="430" y="910" as="sourcePoint" />
            <mxPoint x="430" y="780" as="targetPoint" />
          </mxGeometry>
        </mxCell>
        <mxCell id="F_xju4eKiRVyOeqaCH-x-96" value="" style="endArrow=none;html=1;rounded=0;entryX=0;entryY=0.25;entryDx=0;entryDy=0;" edge="1" parent="1" target="F_xju4eKiRVyOeqaCH-x-27">
          <mxGeometry width="50" height="50" relative="1" as="geometry">
            <mxPoint x="170" y="935" as="sourcePoint" />
            <mxPoint x="510" y="1000" as="targetPoint" />
          </mxGeometry>
        </mxCell>
        <mxCell id="F_xju4eKiRVyOeqaCH-x-97" value="" style="endArrow=none;html=1;rounded=0;" edge="1" parent="1">
          <mxGeometry width="50" height="50" relative="1" as="geometry">
            <mxPoint x="170" y="940" as="sourcePoint" />
            <mxPoint x="170" y="1110" as="targetPoint" />
          </mxGeometry>
        </mxCell>
        <mxCell id="F_xju4eKiRVyOeqaCH-x-98" value="" style="endArrow=none;html=1;rounded=0;exitX=0.5;exitY=1;exitDx=0;exitDy=0;" edge="1" parent="1" source="F_xju4eKiRVyOeqaCH-x-33" target="F_xju4eKiRVyOeqaCH-x-99">
          <mxGeometry width="50" height="50" relative="1" as="geometry">
            <mxPoint x="220" y="1340" as="sourcePoint" />
            <mxPoint x="140" y="1180" as="targetPoint" />
          </mxGeometry>
        </mxCell>
        <mxCell id="F_xju4eKiRVyOeqaCH-x-99" value="Customer Address" style="ellipse;whiteSpace=wrap;html=1;" vertex="1" parent="1">
          <mxGeometry x="200" y="1370" width="100" height="50" as="geometry" />
        </mxCell>
        <mxCell id="F_xju4eKiRVyOeqaCH-x-100" value="Required Role&amp;nbsp;" style="ellipse;whiteSpace=wrap;html=1;" vertex="1" parent="1">
          <mxGeometry x="900" y="319" width="110" height="61" as="geometry" />
        </mxCell>
        <mxCell id="F_xju4eKiRVyOeqaCH-x-101" value="" style="endArrow=none;html=1;rounded=0;exitX=1;exitY=0.75;exitDx=0;exitDy=0;entryX=0;entryY=0.5;entryDx=0;entryDy=0;" edge="1" parent="1" source="F_xju4eKiRVyOeqaCH-x-7" target="F_xju4eKiRVyOeqaCH-x-100">
          <mxGeometry width="50" height="50" relative="1" as="geometry">
            <mxPoint x="700" y="300" as="sourcePoint" />
            <mxPoint x="890" y="340" as="targetPoint" />
          </mxGeometry>
        </mxCell>
      </root>
    </mxGraphModel>
  </diagram>
</mxfile>
